<?xml version="1.0" encoding="utf-8"?><svg version="1.1" id="Layer_1" xmlns="http://www.w3.org/2000/svg" xmlns:xlink="http://www.w3.org/1999/xlink" x="0px" y="0px" viewBox="0 0 122.88 92.65" style="enable-background:new 0 0 122.88 92.65" xml:space="preserve"><style type="text/css">.st0{fill-rule:evenodd;clip-rule:evenodd;}</style><g><path class="st0" d="M0,39.37h24.83v44.18H0V39.37L0,39.37z M81.73,0c12.2,0,22.11,9.89,22.11,22.11c0,12.2-9.89,22.11-22.11,22.11 c-12.2,0-22.11-9.89-22.11-22.11C59.63,9.91,69.52,0,81.73,0L81.73,0z M84.34,27.57c0-0.83-0.2-1.48-0.61-1.95 c-0.41-0.47-1.13-0.92-2.16-1.33c-1.02-0.42-1.97-0.84-2.84-1.27c-0.87-0.43-1.62-0.93-2.25-1.5c-0.63-0.56-1.11-1.22-1.45-1.96 c-0.33-0.74-0.5-1.64-0.5-2.7c0-1.77,0.6-3.23,1.79-4.37c1.19-1.15,2.78-1.82,4.77-2V8.1h2.5v2.44c1.91,0.28,3.42,1.07,4.51,2.36 c1.09,1.29,1.65,2.93,1.65,4.92h-5.31c0-1.09-0.21-1.92-0.63-2.51c-0.42-0.58-1.01-0.88-1.79-0.88c-0.69,0-1.23,0.22-1.61,0.65 c-0.38,0.43-0.57,1.03-0.57,1.8c0,0.78,0.22,1.39,0.66,1.84c0.44,0.46,1.15,0.89,2.12,1.31c0.98,0.41,1.89,0.84,2.76,1.29 c0.86,0.45,1.61,0.95,2.24,1.51c0.63,0.57,1.12,1.23,1.47,1.98c0.36,0.75,0.54,1.66,0.54,2.71c0,1.79-0.57,3.25-1.7,4.38 c-1.14,1.13-2.68,1.79-4.64,1.98v2.22h-2.49v-2.24c-2.28-0.24-4.04-1.02-5.25-2.35c-1.22-1.32-1.83-3.07-1.83-5.24H79 c0,1.2,0.26,2.1,0.79,2.73c0.52,0.62,1.28,0.93,2.25,0.93c0.71,0,1.27-0.21,1.68-0.64C84.13,28.89,84.34,28.3,84.34,27.57 L84.34,27.57L84.34,27.57z M29.83,79.84V42.91h16.61c7.04,1.26,14.08,5.08,21.12,9.51h12.9c5.84,0.35,8.9,6.27,3.22,10.16 c-4.52,3.32-10.49,3.13-16.61,2.58c-4.22-0.21-4.4,5.46,0,5.48c1.53,0.12,3.19-0.24,4.64-0.24c7.64-0.01,13.92-1.47,17.77-7.5 l1.93-4.51l19.19-9.51c9.6-3.16,16.42,6.88,9.35,13.87c-13.9,10.11-28.15,18.43-42.73,25.15c-10.59,6.44-21.18,6.22-31.76,0 L29.83,79.84L29.83,79.84z"/></g></svg>