<?xml version="1.0" encoding="UTF-8"?>
<svg class="css-1j8o68f" viewBox="0 0 200 26.86" xmlns="http://www.w3.org/2000/svg">
<g transform="matrix(.89493 0 0 .89493 -.50116 -8.9374)" fill="#fff" featurekey="nameFeature-0">
<path d="m6.08 10q0.6 0 1.02 0.42t0.42 1.02v2.92q0 0.6-0.42 1.02t-1.02 0.42h-4.12q-0.56 0-0.98-0.42t-0.42-1.02v-2.92q0-0.6 0.42-1.02t0.98-0.42h4.12zm17.88 0q0.56 0 0.98 0.42t0.42 1.02v2.92q0 0.6-0.42 1.02t-0.98 0.42h-8.04v22.72q0 0.56-0.42 0.98t-0.98 0.42h-3.08q-0.6 0-1.02-0.42t-0.42-0.98v-27.08q0-0.6 0.42-1.02t1.02-0.42h12.52zm28.88 0q0.56 0 0.98 0.42t0.42 0.98v15.12q0 5.84-3.56 9.5t-9.14 3.66-9.14-3.66-3.56-9.5v-15.12q0-0.56 0.42-0.98t0.98-0.42h3q0.56 0 0.98 0.42t0.42 0.98v15.2q0 3.72 2.12 5.68 1.8 1.68 4.76 1.68t4.8-1.68q2.12-2 2.12-5.68v-15.2q0-0.56 0.4-0.98t0.96-0.42h3.04zm26.44 23.68q0.6 0 1 0.42t0.4 0.98v2.88q0 0.56-0.4 0.98t-1 0.42h-17.48q-0.56 0-0.98-0.42t-0.42-0.98v-26.56q0-0.56 0.42-0.98t0.98-0.42h3q0.56 0 0.98 0.42t0.42 0.98v22.28h13.08zm9.68-23.68q0.56 0 0.98 0.42t0.42 0.98v26.56q0 0.56-0.42 0.98t-0.98 0.42h-3q-0.56 0-0.98-0.42t-0.42-0.98v-26.56q0-0.56 0.42-0.98t0.98-0.42h3zm22.6 0.84 11.2 26.44q0.2 0.32 0.2 0.68 0 0.56-0.4 0.98t-1 0.42h-3.32q-0.44 0-0.78-0.22t-0.5-0.62l-2.92-6.88h-11.32l-2.88 6.88q-0.16 0.4-0.5 0.62t-0.78 0.22h-3.32q-0.36 0-0.68-0.18t-0.5-0.46-0.22-0.62 0.12-0.66l11.28-26.6q0.16-0.4 0.5-0.62t0.78-0.22h3.76q0.44 0 0.78 0.22t0.5 0.62zm-3.16 7.28-3.32 7.96h6.64zm41.16-2.4q-0.52-0.08-0.86-0.48t-0.34-0.92v-2.92q0-0.68 0.48-1.08t1.12-0.32q3.44 0.56 6.12 2.44 3.48 2.52 4.92 6.68 0.24 0.68-0.16 1.28t-1.16 0.6h-3.2q-0.44 0-0.8-0.22t-0.52-0.62q-0.88-2.08-2.68-3.32-1.4-0.88-2.92-1.12zm10.12 13.28q0.76 0 1.16 0.6t0.16 1.28q-1.44 4.16-4.92 6.68-2.68 1.88-6.12 2.44h-0.2q-0.56 0-0.92-0.36-0.48-0.36-0.48-1.04v-2.92q0-0.52 0.32-0.92t0.84-0.48q1.68-0.24 2.96-1.12 1.8-1.24 2.68-3.32 0.16-0.4 0.52-0.62t0.8-0.22h3.2zm-14.32-18.52q0.52 0.4 0.52 1.08v3.12q0 0.44-0.3 0.82t-0.74 0.54q-0.56 0.12-0.88 0.28-1.6 0.72-2.72 1.96-2.28 2.56-2.28 6.7t2.28 6.74q1.4 1.6 3.6 2.24 0.44 0.12 0.74 0.5t0.3 0.82v3.16q0 0.68-0.52 1.08-0.36 0.32-0.92 0.32h-0.28q-4.28-0.92-7.24-4.16-3.8-4.28-3.8-10.68t3.8-10.68q2.96-3.28 7.24-4.12 0.64-0.16 1.2 0.28zm47.72-0.48q0.56 0 0.98 0.42t0.42 0.98v26.8q0 0.56-0.42 0.98t-0.98 0.42h-3.04q-0.6 0-1-0.42t-0.4-0.98v-18.08l-7.4 9.52q-0.44 0.52-1.12 0.52-0.32 0-0.64-0.14t-0.48-0.42l-13.12-17.36q-0.24-0.28-0.28-0.7t0.16-0.76 0.52-0.56 0.72-0.22h3.52q0.68 0 1.12 0.56l8.48 11.2 8.28-11.2q0.44-0.56 1.16-0.56h3.52zm-23.04 19.4q0.56 0 0.98 0.4t0.42 1v7.4q0 0.56-0.42 0.98t-0.98 0.42h-3.04q-0.56 0-0.98-0.42t-0.42-0.98v-7.4q0-0.6 0.42-1t0.98-0.4h3.04zm50.48-4.56q1.72 1.08 2.62 2.64t0.9 3.48q0 4.52-3.44 6.92-2.32 1.68-6.28 2.12h-0.16q-0.56 0-0.92-0.36-0.48-0.44-0.48-1.04v-2.88q0-0.52 0.36-0.92t0.88-0.48q1.88-0.2 2.92-0.88 0.8-0.48 1.08-1.24 0.16-0.44 0.16-1.12 0-0.44-0.16-0.76t-0.56-0.6q-1.16-0.8-3-1.36l-0.64-0.2q-2-0.56-3.68-0.92-0.36-0.08-1.16-0.28l-0.44-0.12q-1.44-0.36-3.04-1-2.36-1-3.88-2.52-1.76-1.76-1.76-4.64 0-3.96 3.04-6.44 2.08-1.76 5.84-2.24 0.64-0.08 1.1 0.36t0.46 1.04v2.88q0 0.52-0.32 0.92t-0.82 0.46-1.02 0.22q-1.16 0.44-1.64 0.86t-0.68 0.86q-0.2 0.68-0.2 1.28 0 0.32 0.36 0.68 0.56 0.56 1.64 1 0.48 0.2 1.68 0.6l5 1.24 0.24 0.08q1.88 0.52 2.72 0.8 1.88 0.64 3.28 1.56zm-6.68-9.04q-0.48-0.12-0.78-0.5t-0.3-0.9v-2.92q0-0.64 0.52-1.08 0.2-0.2 0.52-0.26t0.6-0.02q3.52 0.56 5.72 2.4 3 2.48 3.2 6.32 0.04 0.56-0.38 1.02t-1.02 0.46h-3.12q-0.52 0-0.92-0.36t-0.44-0.88q-0.16-1.04-0.68-1.72-0.84-1-2.6-1.52-0.12 0-0.16-0.04h-0.16zm-4.68 18.36q0.48 0.08 0.8 0.48t0.32 0.88v2.96q0 0.64-0.48 1.08-0.4 0.32-0.92 0.32h-0.2q-3.72-0.56-6.12-2.44-3.12-2.48-3.52-6.92-0.08-0.64 0.36-1.1t1.04-0.46h3.16q0.56 0 0.96 0.38t0.44 0.94q0.12 2 1.96 3.08 0.84 0.48 2.2 0.8z"/>
</g>
</svg>
